<mxfile host="app.diagrams.net" modified="2023-06-01T12:30:59.670Z" agent="Mozilla/5.0 (Windows NT 10.0; Win64; x64) AppleWebKit/537.36 (KHTML, like Gecko) Chrome/114.0.0.0 Safari/537.36" etag="1ncg_AXgJmkke37xa5od" version="21.3.6" type="device" pages="11">
  <diagram name="Trang-1" id="N69KJBFgCDEsnAVQQrl6">
    <mxGraphModel dx="1290" dy="541" grid="1" gridSize="10" guides="1" tooltips="1" connect="1" arrows="1" fold="1" page="1" pageScale="1" pageWidth="827" pageHeight="1169" math="0" shadow="0">
      <root>
        <mxCell id="0" />
        <mxCell id="1" parent="0" />
        <mxCell id="rnawUz7g1kQoHXHoxUpH-1" value="START&amp;nbsp;" style="ellipse;whiteSpace=wrap;html=1;" parent="1" vertex="1">
          <mxGeometry x="310" y="70" width="120" height="80" as="geometry" />
        </mxCell>
        <mxCell id="rnawUz7g1kQoHXHoxUpH-2" value="Nhập height&lt;br&gt;i = &quot;*&quot;" style="shape=parallelogram;perimeter=parallelogramPerimeter;whiteSpace=wrap;html=1;fixedSize=1;" parent="1" vertex="1">
          <mxGeometry x="310" y="170" width="120" height="60" as="geometry" />
        </mxCell>
        <mxCell id="rnawUz7g1kQoHXHoxUpH-3" value="i += &quot;*&quot;" style="rounded=0;whiteSpace=wrap;html=1;" parent="1" vertex="1">
          <mxGeometry x="300" y="440" width="120" height="60" as="geometry" />
        </mxCell>
        <mxCell id="rnawUz7g1kQoHXHoxUpH-16" style="edgeStyle=orthogonalEdgeStyle;rounded=0;orthogonalLoop=1;jettySize=auto;html=1;exitX=0.5;exitY=1;exitDx=0;exitDy=0;entryX=0.5;entryY=0;entryDx=0;entryDy=0;" parent="1" source="rnawUz7g1kQoHXHoxUpH-4" target="rnawUz7g1kQoHXHoxUpH-5" edge="1">
          <mxGeometry relative="1" as="geometry" />
        </mxCell>
        <mxCell id="rnawUz7g1kQoHXHoxUpH-4" value="len[i] &amp;lt;= height" style="rhombus;whiteSpace=wrap;html=1;" parent="1" vertex="1">
          <mxGeometry x="310" y="250" width="110" height="80" as="geometry" />
        </mxCell>
        <mxCell id="rnawUz7g1kQoHXHoxUpH-17" style="edgeStyle=orthogonalEdgeStyle;rounded=0;orthogonalLoop=1;jettySize=auto;html=1;exitX=0.5;exitY=1;exitDx=0;exitDy=0;entryX=0.5;entryY=0;entryDx=0;entryDy=0;" parent="1" source="rnawUz7g1kQoHXHoxUpH-5" target="rnawUz7g1kQoHXHoxUpH-3" edge="1">
          <mxGeometry relative="1" as="geometry" />
        </mxCell>
        <mxCell id="rnawUz7g1kQoHXHoxUpH-5" value="Print(i)" style="shape=parallelogram;perimeter=parallelogramPerimeter;whiteSpace=wrap;html=1;fixedSize=1;" parent="1" vertex="1">
          <mxGeometry x="305" y="350" width="120" height="60" as="geometry" />
        </mxCell>
        <mxCell id="rnawUz7g1kQoHXHoxUpH-6" value="END" style="ellipse;whiteSpace=wrap;html=1;" parent="1" vertex="1">
          <mxGeometry x="305" y="520" width="120" height="80" as="geometry" />
        </mxCell>
        <mxCell id="rnawUz7g1kQoHXHoxUpH-7" value="" style="endArrow=classic;html=1;rounded=0;entryX=0.5;entryY=0;entryDx=0;entryDy=0;exitX=0.5;exitY=1;exitDx=0;exitDy=0;" parent="1" source="rnawUz7g1kQoHXHoxUpH-1" target="rnawUz7g1kQoHXHoxUpH-2" edge="1">
          <mxGeometry width="50" height="50" relative="1" as="geometry">
            <mxPoint x="260" y="300" as="sourcePoint" />
            <mxPoint x="310" y="250" as="targetPoint" />
          </mxGeometry>
        </mxCell>
        <mxCell id="rnawUz7g1kQoHXHoxUpH-11" value="" style="endArrow=classic;html=1;rounded=0;entryX=0.5;entryY=0;entryDx=0;entryDy=0;exitX=0.447;exitY=0.977;exitDx=0;exitDy=0;exitPerimeter=0;" parent="1" source="rnawUz7g1kQoHXHoxUpH-2" target="rnawUz7g1kQoHXHoxUpH-4" edge="1">
          <mxGeometry width="50" height="50" relative="1" as="geometry">
            <mxPoint x="270" y="290" as="sourcePoint" />
            <mxPoint x="320" y="240" as="targetPoint" />
          </mxGeometry>
        </mxCell>
        <mxCell id="rnawUz7g1kQoHXHoxUpH-18" value="" style="endArrow=classic;html=1;rounded=0;entryX=1;entryY=0.5;entryDx=0;entryDy=0;exitX=1;exitY=0.5;exitDx=0;exitDy=0;" parent="1" source="rnawUz7g1kQoHXHoxUpH-3" target="rnawUz7g1kQoHXHoxUpH-4" edge="1">
          <mxGeometry width="50" height="50" relative="1" as="geometry">
            <mxPoint x="420" y="520" as="sourcePoint" />
            <mxPoint x="470" y="470" as="targetPoint" />
            <Array as="points">
              <mxPoint x="470" y="470" />
              <mxPoint x="470" y="290" />
            </Array>
          </mxGeometry>
        </mxCell>
        <mxCell id="rnawUz7g1kQoHXHoxUpH-21" value="" style="endArrow=classic;html=1;rounded=0;entryX=0;entryY=0.5;entryDx=0;entryDy=0;" parent="1" target="rnawUz7g1kQoHXHoxUpH-6" edge="1">
          <mxGeometry width="50" height="50" relative="1" as="geometry">
            <mxPoint x="305" y="290" as="sourcePoint" />
            <mxPoint x="240" y="560" as="targetPoint" />
            <Array as="points">
              <mxPoint x="240" y="290" />
              <mxPoint x="240" y="560" />
            </Array>
          </mxGeometry>
        </mxCell>
        <mxCell id="rnawUz7g1kQoHXHoxUpH-22" value="&lt;font style=&quot;font-size: 18px;&quot;&gt;Tam giác vuông&lt;/font&gt;" style="text;html=1;strokeColor=none;fillColor=none;align=center;verticalAlign=middle;whiteSpace=wrap;rounded=0;" parent="1" vertex="1">
          <mxGeometry x="285" y="10" width="170" height="30" as="geometry" />
        </mxCell>
      </root>
    </mxGraphModel>
  </diagram>
  <diagram id="SckvSRvaWsPv0Sx1Ze7j" name="Trang-2">
    <mxGraphModel dx="1290" dy="541" grid="1" gridSize="10" guides="1" tooltips="1" connect="1" arrows="1" fold="1" page="1" pageScale="1" pageWidth="827" pageHeight="1169" math="0" shadow="0">
      <root>
        <mxCell id="0" />
        <mxCell id="1" parent="0" />
        <mxCell id="4DJLqQhTNl1Zy0WJ8W2J-1" value="&lt;font style=&quot;font-size: 24px;&quot;&gt;Vẽ đa giác đều&lt;/font&gt;" style="text;html=1;strokeColor=none;fillColor=none;align=center;verticalAlign=middle;whiteSpace=wrap;rounded=0;" parent="1" vertex="1">
          <mxGeometry x="290" y="20" width="230" height="30" as="geometry" />
        </mxCell>
        <mxCell id="4DJLqQhTNl1Zy0WJ8W2J-12" style="edgeStyle=orthogonalEdgeStyle;rounded=0;orthogonalLoop=1;jettySize=auto;html=1;exitX=0.5;exitY=1;exitDx=0;exitDy=0;entryX=0.5;entryY=0;entryDx=0;entryDy=0;" parent="1" source="4DJLqQhTNl1Zy0WJ8W2J-2" target="4DJLqQhTNl1Zy0WJ8W2J-3" edge="1">
          <mxGeometry relative="1" as="geometry" />
        </mxCell>
        <mxCell id="4DJLqQhTNl1Zy0WJ8W2J-2" value="START" style="ellipse;whiteSpace=wrap;html=1;" parent="1" vertex="1">
          <mxGeometry x="345" y="100" width="120" height="80" as="geometry" />
        </mxCell>
        <mxCell id="4DJLqQhTNl1Zy0WJ8W2J-11" value="" style="edgeStyle=orthogonalEdgeStyle;rounded=0;orthogonalLoop=1;jettySize=auto;html=1;" parent="1" source="4DJLqQhTNl1Zy0WJ8W2J-3" target="4DJLqQhTNl1Zy0WJ8W2J-4" edge="1">
          <mxGeometry relative="1" as="geometry" />
        </mxCell>
        <mxCell id="4DJLqQhTNl1Zy0WJ8W2J-3" value="Import turtle&lt;br&gt;độ dài cạnh size&lt;br&gt;số cạnh đa giác sides&lt;br&gt;i = 0&lt;br&gt;n = turtle.Turtle()" style="shape=parallelogram;perimeter=parallelogramPerimeter;whiteSpace=wrap;html=1;fixedSize=1;" parent="1" vertex="1">
          <mxGeometry x="314" y="200" width="184" height="80" as="geometry" />
        </mxCell>
        <mxCell id="4DJLqQhTNl1Zy0WJ8W2J-13" style="edgeStyle=orthogonalEdgeStyle;rounded=0;orthogonalLoop=1;jettySize=auto;html=1;exitX=0.5;exitY=1;exitDx=0;exitDy=0;entryX=0.5;entryY=0;entryDx=0;entryDy=0;" parent="1" source="4DJLqQhTNl1Zy0WJ8W2J-4" edge="1">
          <mxGeometry relative="1" as="geometry">
            <mxPoint x="405" y="390" as="targetPoint" />
          </mxGeometry>
        </mxCell>
        <mxCell id="4DJLqQhTNl1Zy0WJ8W2J-4" value="i &amp;lt; sides" style="rhombus;whiteSpace=wrap;html=1;" parent="1" vertex="1">
          <mxGeometry x="366" y="290" width="80" height="80" as="geometry" />
        </mxCell>
        <mxCell id="4DJLqQhTNl1Zy0WJ8W2J-14" style="edgeStyle=orthogonalEdgeStyle;rounded=0;orthogonalLoop=1;jettySize=auto;html=1;exitX=0.5;exitY=1;exitDx=0;exitDy=0;entryX=0.5;entryY=0;entryDx=0;entryDy=0;" parent="1" edge="1">
          <mxGeometry relative="1" as="geometry">
            <mxPoint x="405" y="450" as="sourcePoint" />
            <mxPoint x="405" y="490" as="targetPoint" />
          </mxGeometry>
        </mxCell>
        <mxCell id="4DJLqQhTNl1Zy0WJ8W2J-15" style="edgeStyle=orthogonalEdgeStyle;rounded=0;orthogonalLoop=1;jettySize=auto;html=1;exitX=0.5;exitY=1;exitDx=0;exitDy=0;entryX=0.5;entryY=0;entryDx=0;entryDy=0;" parent="1" target="4DJLqQhTNl1Zy0WJ8W2J-7" edge="1">
          <mxGeometry relative="1" as="geometry">
            <mxPoint x="405" y="550" as="sourcePoint" />
          </mxGeometry>
        </mxCell>
        <mxCell id="4DJLqQhTNl1Zy0WJ8W2J-7" value="END" style="ellipse;whiteSpace=wrap;html=1;" parent="1" vertex="1">
          <mxGeometry x="345" y="570" width="120" height="80" as="geometry" />
        </mxCell>
        <mxCell id="4DJLqQhTNl1Zy0WJ8W2J-8" value="" style="endArrow=classic;html=1;rounded=0;exitX=1;exitY=0.5;exitDx=0;exitDy=0;entryX=1;entryY=0.5;entryDx=0;entryDy=0;" parent="1" target="4DJLqQhTNl1Zy0WJ8W2J-4" edge="1">
          <mxGeometry width="50" height="50" relative="1" as="geometry">
            <mxPoint x="455" y="520" as="sourcePoint" />
            <mxPoint x="510" y="320" as="targetPoint" />
            <Array as="points">
              <mxPoint x="510" y="520" />
              <mxPoint x="510" y="330" />
            </Array>
          </mxGeometry>
        </mxCell>
        <mxCell id="4DJLqQhTNl1Zy0WJ8W2J-9" value="" style="endArrow=classic;html=1;rounded=0;entryX=0;entryY=0.5;entryDx=0;entryDy=0;exitX=0;exitY=0.5;exitDx=0;exitDy=0;" parent="1" source="4DJLqQhTNl1Zy0WJ8W2J-4" target="4DJLqQhTNl1Zy0WJ8W2J-7" edge="1">
          <mxGeometry width="50" height="50" relative="1" as="geometry">
            <mxPoint x="300" y="320" as="sourcePoint" />
            <mxPoint x="300" y="360" as="targetPoint" />
            <Array as="points">
              <mxPoint x="300" y="330" />
              <mxPoint x="300" y="610" />
            </Array>
          </mxGeometry>
        </mxCell>
        <mxCell id="m5Vug6ruh8O6ZVu9igkO-1" value="n.forward(size)&lt;br&gt;n.right(360/sides)" style="shape=parallelogram;perimeter=parallelogramPerimeter;whiteSpace=wrap;html=1;fixedSize=1;" parent="1" vertex="1">
          <mxGeometry x="332.5" y="390" width="145" height="60" as="geometry" />
        </mxCell>
        <mxCell id="m5Vug6ruh8O6ZVu9igkO-2" value="i += 1&lt;br&gt;turtle.done()" style="rounded=0;whiteSpace=wrap;html=1;" parent="1" vertex="1">
          <mxGeometry x="345" y="490" width="120" height="60" as="geometry" />
        </mxCell>
      </root>
    </mxGraphModel>
  </diagram>
  <diagram id="12GO8fQ-xUFsWXELN8iV" name="Trang-3">
    <mxGraphModel dx="1290" dy="541" grid="1" gridSize="10" guides="1" tooltips="1" connect="1" arrows="1" fold="1" page="1" pageScale="1" pageWidth="827" pageHeight="1169" math="0" shadow="0">
      <root>
        <mxCell id="0" />
        <mxCell id="1" parent="0" />
        <mxCell id="N7T3cPjJEkMooQGWvAG_-8" style="edgeStyle=orthogonalEdgeStyle;rounded=0;orthogonalLoop=1;jettySize=auto;html=1;exitX=0.5;exitY=1;exitDx=0;exitDy=0;entryX=0.5;entryY=0;entryDx=0;entryDy=0;" parent="1" source="N7T3cPjJEkMooQGWvAG_-1" target="N7T3cPjJEkMooQGWvAG_-2" edge="1">
          <mxGeometry relative="1" as="geometry" />
        </mxCell>
        <mxCell id="N7T3cPjJEkMooQGWvAG_-1" value="START" style="ellipse;whiteSpace=wrap;html=1;" parent="1" vertex="1">
          <mxGeometry x="320" y="20" width="120" height="80" as="geometry" />
        </mxCell>
        <mxCell id="N7T3cPjJEkMooQGWvAG_-15" style="edgeStyle=orthogonalEdgeStyle;rounded=0;orthogonalLoop=1;jettySize=auto;html=1;exitX=0.5;exitY=1;exitDx=0;exitDy=0;" parent="1" source="N7T3cPjJEkMooQGWvAG_-2" target="N7T3cPjJEkMooQGWvAG_-14" edge="1">
          <mxGeometry relative="1" as="geometry" />
        </mxCell>
        <mxCell id="N7T3cPjJEkMooQGWvAG_-2" value="Nhập a" style="shape=parallelogram;perimeter=parallelogramPerimeter;whiteSpace=wrap;html=1;fixedSize=1;" parent="1" vertex="1">
          <mxGeometry x="320" y="130" width="120" height="60" as="geometry" />
        </mxCell>
        <mxCell id="N7T3cPjJEkMooQGWvAG_-10" style="edgeStyle=orthogonalEdgeStyle;rounded=0;orthogonalLoop=1;jettySize=auto;html=1;exitX=0.5;exitY=1;exitDx=0;exitDy=0;entryX=0.5;entryY=0;entryDx=0;entryDy=0;" parent="1" source="N7T3cPjJEkMooQGWvAG_-3" target="N7T3cPjJEkMooQGWvAG_-4" edge="1">
          <mxGeometry relative="1" as="geometry" />
        </mxCell>
        <mxCell id="N7T3cPjJEkMooQGWvAG_-3" value="sum_k &amp;lt;= a" style="rhombus;whiteSpace=wrap;html=1;" parent="1" vertex="1">
          <mxGeometry x="310" y="296" width="140" height="80" as="geometry" />
        </mxCell>
        <mxCell id="N7T3cPjJEkMooQGWvAG_-11" style="edgeStyle=orthogonalEdgeStyle;rounded=0;orthogonalLoop=1;jettySize=auto;html=1;exitX=0.5;exitY=1;exitDx=0;exitDy=0;entryX=0.5;entryY=0;entryDx=0;entryDy=0;" parent="1" source="N7T3cPjJEkMooQGWvAG_-4" target="N7T3cPjJEkMooQGWvAG_-5" edge="1">
          <mxGeometry relative="1" as="geometry" />
        </mxCell>
        <mxCell id="N7T3cPjJEkMooQGWvAG_-4" value="sum_k += k&lt;br&gt;k += 1" style="rounded=0;whiteSpace=wrap;html=1;" parent="1" vertex="1">
          <mxGeometry x="320" y="406" width="120" height="60" as="geometry" />
        </mxCell>
        <mxCell id="N7T3cPjJEkMooQGWvAG_-12" value="" style="edgeStyle=orthogonalEdgeStyle;rounded=0;orthogonalLoop=1;jettySize=auto;html=1;" parent="1" source="N7T3cPjJEkMooQGWvAG_-5" target="N7T3cPjJEkMooQGWvAG_-6" edge="1">
          <mxGeometry relative="1" as="geometry" />
        </mxCell>
        <mxCell id="N7T3cPjJEkMooQGWvAG_-5" value="in ra k và sum_k" style="shape=parallelogram;perimeter=parallelogramPerimeter;whiteSpace=wrap;html=1;fixedSize=1;" parent="1" vertex="1">
          <mxGeometry x="320" y="496" width="120" height="60" as="geometry" />
        </mxCell>
        <mxCell id="N7T3cPjJEkMooQGWvAG_-6" value="END" style="ellipse;whiteSpace=wrap;html=1;" parent="1" vertex="1">
          <mxGeometry x="320" y="581" width="120" height="80" as="geometry" />
        </mxCell>
        <mxCell id="N7T3cPjJEkMooQGWvAG_-7" value="" style="endArrow=classic;html=1;rounded=0;entryX=-0.017;entryY=0.42;entryDx=0;entryDy=0;entryPerimeter=0;exitX=0;exitY=0.5;exitDx=0;exitDy=0;" parent="1" source="N7T3cPjJEkMooQGWvAG_-3" target="N7T3cPjJEkMooQGWvAG_-6" edge="1">
          <mxGeometry width="50" height="50" relative="1" as="geometry">
            <mxPoint x="240" y="336" as="sourcePoint" />
            <mxPoint x="290" y="286" as="targetPoint" />
            <Array as="points">
              <mxPoint x="280" y="336" />
              <mxPoint x="280" y="615" />
            </Array>
          </mxGeometry>
        </mxCell>
        <mxCell id="N7T3cPjJEkMooQGWvAG_-13" value="" style="endArrow=classic;html=1;rounded=0;exitX=1;exitY=0.5;exitDx=0;exitDy=0;entryX=1;entryY=0.5;entryDx=0;entryDy=0;" parent="1" source="N7T3cPjJEkMooQGWvAG_-5" target="N7T3cPjJEkMooQGWvAG_-3" edge="1">
          <mxGeometry width="50" height="50" relative="1" as="geometry">
            <mxPoint x="490" y="526" as="sourcePoint" />
            <mxPoint x="480" y="336" as="targetPoint" />
            <Array as="points">
              <mxPoint x="470" y="526" />
              <mxPoint x="470" y="336" />
            </Array>
          </mxGeometry>
        </mxCell>
        <mxCell id="N7T3cPjJEkMooQGWvAG_-16" style="edgeStyle=orthogonalEdgeStyle;rounded=0;orthogonalLoop=1;jettySize=auto;html=1;exitX=0.5;exitY=1;exitDx=0;exitDy=0;" parent="1" source="N7T3cPjJEkMooQGWvAG_-14" target="N7T3cPjJEkMooQGWvAG_-3" edge="1">
          <mxGeometry relative="1" as="geometry">
            <mxPoint x="380" y="280" as="targetPoint" />
          </mxGeometry>
        </mxCell>
        <mxCell id="N7T3cPjJEkMooQGWvAG_-14" value="k = 1&lt;br&gt;sum_k = 9" style="rounded=0;whiteSpace=wrap;html=1;" parent="1" vertex="1">
          <mxGeometry x="320" y="210" width="120" height="60" as="geometry" />
        </mxCell>
      </root>
    </mxGraphModel>
  </diagram>
  <diagram id="YWZ26C4bpvoOz1wgMdMO" name="Trang-4">
    <mxGraphModel dx="1042" dy="1062" grid="1" gridSize="10" guides="1" tooltips="1" connect="1" arrows="1" fold="1" page="1" pageScale="1" pageWidth="827" pageHeight="1169" math="0" shadow="0">
      <root>
        <mxCell id="0" />
        <mxCell id="1" parent="0" />
        <mxCell id="NigfShbZTfW3NVywIpVf-8" style="edgeStyle=orthogonalEdgeStyle;rounded=0;orthogonalLoop=1;jettySize=auto;html=1;exitX=0.5;exitY=1;exitDx=0;exitDy=0;entryX=0.5;entryY=0;entryDx=0;entryDy=0;" parent="1" source="NigfShbZTfW3NVywIpVf-2" target="NigfShbZTfW3NVywIpVf-3" edge="1">
          <mxGeometry relative="1" as="geometry" />
        </mxCell>
        <mxCell id="NigfShbZTfW3NVywIpVf-2" value="START" style="ellipse;whiteSpace=wrap;html=1;" parent="1" vertex="1">
          <mxGeometry x="354" y="10" width="120" height="80" as="geometry" />
        </mxCell>
        <mxCell id="NigfShbZTfW3NVywIpVf-9" style="edgeStyle=orthogonalEdgeStyle;rounded=0;orthogonalLoop=1;jettySize=auto;html=1;exitX=0.5;exitY=1;exitDx=0;exitDy=0;entryX=0.5;entryY=0;entryDx=0;entryDy=0;" parent="1" source="NigfShbZTfW3NVywIpVf-3" target="NigfShbZTfW3NVywIpVf-4" edge="1">
          <mxGeometry relative="1" as="geometry" />
        </mxCell>
        <mxCell id="NigfShbZTfW3NVywIpVf-3" value="input height" style="shape=parallelogram;perimeter=parallelogramPerimeter;whiteSpace=wrap;html=1;fixedSize=1;" parent="1" vertex="1">
          <mxGeometry x="360" y="120" width="110" height="60" as="geometry" />
        </mxCell>
        <mxCell id="NigfShbZTfW3NVywIpVf-10" style="edgeStyle=orthogonalEdgeStyle;rounded=0;orthogonalLoop=1;jettySize=auto;html=1;exitX=0.5;exitY=1;exitDx=0;exitDy=0;entryX=0.5;entryY=0;entryDx=0;entryDy=0;" parent="1" source="NigfShbZTfW3NVywIpVf-4" edge="1">
          <mxGeometry relative="1" as="geometry">
            <mxPoint x="414" y="330" as="targetPoint" />
          </mxGeometry>
        </mxCell>
        <mxCell id="NigfShbZTfW3NVywIpVf-4" value="height &amp;gt; 0&amp;nbsp;" style="rhombus;whiteSpace=wrap;html=1;" parent="1" vertex="1">
          <mxGeometry x="374" y="219" width="80" height="80" as="geometry" />
        </mxCell>
        <mxCell id="NigfShbZTfW3NVywIpVf-11" style="edgeStyle=orthogonalEdgeStyle;rounded=0;orthogonalLoop=1;jettySize=auto;html=1;exitX=0.5;exitY=1;exitDx=0;exitDy=0;" parent="1" edge="1">
          <mxGeometry relative="1" as="geometry">
            <mxPoint x="414" y="390" as="sourcePoint" />
            <mxPoint x="414" y="420" as="targetPoint" />
          </mxGeometry>
        </mxCell>
        <mxCell id="NigfShbZTfW3NVywIpVf-12" style="edgeStyle=orthogonalEdgeStyle;rounded=0;orthogonalLoop=1;jettySize=auto;html=1;exitX=0.5;exitY=1;exitDx=0;exitDy=0;entryX=0.5;entryY=0;entryDx=0;entryDy=0;" parent="1" target="NigfShbZTfW3NVywIpVf-7" edge="1">
          <mxGeometry relative="1" as="geometry">
            <mxPoint x="414" y="480" as="sourcePoint" />
          </mxGeometry>
        </mxCell>
        <mxCell id="NigfShbZTfW3NVywIpVf-7" value="END" style="ellipse;whiteSpace=wrap;html=1;" parent="1" vertex="1">
          <mxGeometry x="354" y="530" width="120" height="80" as="geometry" />
        </mxCell>
        <mxCell id="NigfShbZTfW3NVywIpVf-13" value="" style="endArrow=classic;html=1;rounded=0;entryX=0;entryY=0.5;entryDx=0;entryDy=0;exitX=0;exitY=0.5;exitDx=0;exitDy=0;" parent="1" source="NigfShbZTfW3NVywIpVf-4" target="NigfShbZTfW3NVywIpVf-7" edge="1">
          <mxGeometry width="50" height="50" relative="1" as="geometry">
            <mxPoint x="290" y="210" as="sourcePoint" />
            <mxPoint x="320" y="560" as="targetPoint" />
            <Array as="points">
              <mxPoint x="310" y="260" />
              <mxPoint x="310" y="570" />
            </Array>
          </mxGeometry>
        </mxCell>
        <mxCell id="1yZer8NN2N0P3XKoTtz2-1" value="" style="endArrow=classic;html=1;rounded=0;exitX=1;exitY=0.5;exitDx=0;exitDy=0;entryX=1;entryY=0.5;entryDx=0;entryDy=0;" parent="1" source="0XryxORetJWc9DWD6sRx-2" target="NigfShbZTfW3NVywIpVf-4" edge="1">
          <mxGeometry width="50" height="50" relative="1" as="geometry">
            <mxPoint x="474" y="360" as="sourcePoint" />
            <mxPoint x="550" y="300" as="targetPoint" />
            <Array as="points">
              <mxPoint x="520" y="450" />
              <mxPoint x="520" y="260" />
            </Array>
          </mxGeometry>
        </mxCell>
        <mxCell id="0XryxORetJWc9DWD6sRx-1" value="output &quot;* &quot; * height" style="shape=parallelogram;perimeter=parallelogramPerimeter;whiteSpace=wrap;html=1;fixedSize=1;" parent="1" vertex="1">
          <mxGeometry x="340" y="330" width="150" height="60" as="geometry" />
        </mxCell>
        <mxCell id="0XryxORetJWc9DWD6sRx-2" value="height -= 1" style="rounded=0;whiteSpace=wrap;html=1;" parent="1" vertex="1">
          <mxGeometry x="355" y="420" width="120" height="60" as="geometry" />
        </mxCell>
      </root>
    </mxGraphModel>
  </diagram>
  <diagram id="U_lQ5dlYhJAkCfxnDBDB" name="Trang-5">
    <mxGraphModel dx="2501" dy="1925" grid="1" gridSize="10" guides="1" tooltips="1" connect="1" arrows="1" fold="1" page="1" pageScale="1" pageWidth="827" pageHeight="1169" math="0" shadow="0">
      <root>
        <mxCell id="0" />
        <mxCell id="1" parent="0" />
        <mxCell id="-0o3Ldo7zShTiaAPJY4r-23" style="edgeStyle=orthogonalEdgeStyle;rounded=0;orthogonalLoop=1;jettySize=auto;html=1;exitX=0.5;exitY=1;exitDx=0;exitDy=0;entryX=0.5;entryY=0;entryDx=0;entryDy=0;" parent="1" source="-0o3Ldo7zShTiaAPJY4r-2" target="-0o3Ldo7zShTiaAPJY4r-3" edge="1">
          <mxGeometry relative="1" as="geometry" />
        </mxCell>
        <mxCell id="-0o3Ldo7zShTiaAPJY4r-2" value="START" style="ellipse;whiteSpace=wrap;html=1;" parent="1" vertex="1">
          <mxGeometry x="110" y="-1150" width="120" height="80" as="geometry" />
        </mxCell>
        <mxCell id="-0o3Ldo7zShTiaAPJY4r-24" style="edgeStyle=orthogonalEdgeStyle;rounded=0;orthogonalLoop=1;jettySize=auto;html=1;exitX=0.5;exitY=1;exitDx=0;exitDy=0;entryX=0.5;entryY=0;entryDx=0;entryDy=0;" parent="1" source="-0o3Ldo7zShTiaAPJY4r-3" target="-0o3Ldo7zShTiaAPJY4r-4" edge="1">
          <mxGeometry relative="1" as="geometry" />
        </mxCell>
        <mxCell id="-0o3Ldo7zShTiaAPJY4r-3" value="input player" style="shape=parallelogram;perimeter=parallelogramPerimeter;whiteSpace=wrap;html=1;fixedSize=1;" parent="1" vertex="1">
          <mxGeometry x="112.5" y="-1040" width="115" height="60" as="geometry" />
        </mxCell>
        <mxCell id="-0o3Ldo7zShTiaAPJY4r-25" style="edgeStyle=orthogonalEdgeStyle;rounded=0;orthogonalLoop=1;jettySize=auto;html=1;exitX=0.5;exitY=1;exitDx=0;exitDy=0;entryX=0.5;entryY=0;entryDx=0;entryDy=0;" parent="1" source="-0o3Ldo7zShTiaAPJY4r-4" target="-0o3Ldo7zShTiaAPJY4r-5" edge="1">
          <mxGeometry relative="1" as="geometry" />
        </mxCell>
        <mxCell id="-0o3Ldo7zShTiaAPJY4r-4" value="random computer" style="shape=parallelogram;perimeter=parallelogramPerimeter;whiteSpace=wrap;html=1;fixedSize=1;" parent="1" vertex="1">
          <mxGeometry x="100" y="-950" width="120" height="60" as="geometry" />
        </mxCell>
        <mxCell id="-0o3Ldo7zShTiaAPJY4r-26" style="edgeStyle=orthogonalEdgeStyle;rounded=0;orthogonalLoop=1;jettySize=auto;html=1;exitX=0;exitY=0.5;exitDx=0;exitDy=0;entryX=0.5;entryY=0;entryDx=0;entryDy=0;" parent="1" source="-0o3Ldo7zShTiaAPJY4r-5" target="-0o3Ldo7zShTiaAPJY4r-6" edge="1">
          <mxGeometry relative="1" as="geometry">
            <mxPoint x="9.999999999999773" y="-819.4285714285713" as="targetPoint" />
          </mxGeometry>
        </mxCell>
        <mxCell id="-0o3Ldo7zShTiaAPJY4r-32" style="edgeStyle=orthogonalEdgeStyle;rounded=0;orthogonalLoop=1;jettySize=auto;html=1;exitX=1;exitY=0.5;exitDx=0;exitDy=0;entryX=0.5;entryY=0;entryDx=0;entryDy=0;" parent="1" source="-0o3Ldo7zShTiaAPJY4r-5" target="-0o3Ldo7zShTiaAPJY4r-8" edge="1">
          <mxGeometry relative="1" as="geometry">
            <mxPoint x="300" y="-819.5" as="targetPoint" />
          </mxGeometry>
        </mxCell>
        <mxCell id="-0o3Ldo7zShTiaAPJY4r-5" value="player == computer" style="rhombus;whiteSpace=wrap;html=1;" parent="1" vertex="1">
          <mxGeometry x="95" y="-860" width="130" height="80" as="geometry" />
        </mxCell>
        <mxCell id="-0o3Ldo7zShTiaAPJY4r-6" value="Draw" style="shape=parallelogram;perimeter=parallelogramPerimeter;whiteSpace=wrap;html=1;fixedSize=1;" parent="1" vertex="1">
          <mxGeometry x="-60" y="-750" width="120" height="60" as="geometry" />
        </mxCell>
        <mxCell id="-0o3Ldo7zShTiaAPJY4r-33" style="edgeStyle=orthogonalEdgeStyle;rounded=0;orthogonalLoop=1;jettySize=auto;html=1;exitX=1;exitY=0.5;exitDx=0;exitDy=0;entryX=0;entryY=0.5;entryDx=0;entryDy=0;" parent="1" source="-0o3Ldo7zShTiaAPJY4r-8" target="-0o3Ldo7zShTiaAPJY4r-9" edge="1">
          <mxGeometry relative="1" as="geometry" />
        </mxCell>
        <mxCell id="-0o3Ldo7zShTiaAPJY4r-36" style="edgeStyle=orthogonalEdgeStyle;rounded=0;orthogonalLoop=1;jettySize=auto;html=1;exitX=0.5;exitY=1;exitDx=0;exitDy=0;entryX=0.5;entryY=0;entryDx=0;entryDy=0;" parent="1" source="-0o3Ldo7zShTiaAPJY4r-8" target="-0o3Ldo7zShTiaAPJY4r-11" edge="1">
          <mxGeometry relative="1" as="geometry" />
        </mxCell>
        <mxCell id="-0o3Ldo7zShTiaAPJY4r-8" value="player==1" style="rhombus;whiteSpace=wrap;html=1;" parent="1" vertex="1">
          <mxGeometry x="260" y="-760" width="80" height="80" as="geometry" />
        </mxCell>
        <mxCell id="-0o3Ldo7zShTiaAPJY4r-34" style="edgeStyle=orthogonalEdgeStyle;rounded=0;orthogonalLoop=1;jettySize=auto;html=1;exitX=1;exitY=0.5;exitDx=0;exitDy=0;entryX=0;entryY=0.5;entryDx=0;entryDy=0;" parent="1" source="-0o3Ldo7zShTiaAPJY4r-9" target="-0o3Ldo7zShTiaAPJY4r-10" edge="1">
          <mxGeometry relative="1" as="geometry" />
        </mxCell>
        <mxCell id="-0o3Ldo7zShTiaAPJY4r-37" style="edgeStyle=orthogonalEdgeStyle;rounded=0;orthogonalLoop=1;jettySize=auto;html=1;exitX=0.5;exitY=1;exitDx=0;exitDy=0;entryX=0.5;entryY=0;entryDx=0;entryDy=0;" parent="1" source="-0o3Ldo7zShTiaAPJY4r-9" target="-0o3Ldo7zShTiaAPJY4r-12" edge="1">
          <mxGeometry relative="1" as="geometry" />
        </mxCell>
        <mxCell id="-0o3Ldo7zShTiaAPJY4r-9" value="player==2" style="rhombus;whiteSpace=wrap;html=1;" parent="1" vertex="1">
          <mxGeometry x="510" y="-760" width="80" height="80" as="geometry" />
        </mxCell>
        <mxCell id="-0o3Ldo7zShTiaAPJY4r-35" style="edgeStyle=orthogonalEdgeStyle;rounded=0;orthogonalLoop=1;jettySize=auto;html=1;exitX=1;exitY=0.5;exitDx=0;exitDy=0;entryX=0.5;entryY=0;entryDx=0;entryDy=0;" parent="1" source="-0o3Ldo7zShTiaAPJY4r-10" target="-0o3Ldo7zShTiaAPJY4r-14" edge="1">
          <mxGeometry relative="1" as="geometry">
            <mxPoint x="1010" y="-719.5" as="targetPoint" />
          </mxGeometry>
        </mxCell>
        <mxCell id="-0o3Ldo7zShTiaAPJY4r-38" style="edgeStyle=orthogonalEdgeStyle;rounded=0;orthogonalLoop=1;jettySize=auto;html=1;exitX=0.5;exitY=1;exitDx=0;exitDy=0;entryX=0.5;entryY=0;entryDx=0;entryDy=0;" parent="1" source="-0o3Ldo7zShTiaAPJY4r-10" target="-0o3Ldo7zShTiaAPJY4r-13" edge="1">
          <mxGeometry relative="1" as="geometry" />
        </mxCell>
        <mxCell id="-0o3Ldo7zShTiaAPJY4r-10" value="player==3" style="rhombus;whiteSpace=wrap;html=1;" parent="1" vertex="1">
          <mxGeometry x="730" y="-760" width="80" height="80" as="geometry" />
        </mxCell>
        <mxCell id="-0o3Ldo7zShTiaAPJY4r-39" style="edgeStyle=orthogonalEdgeStyle;rounded=0;orthogonalLoop=1;jettySize=auto;html=1;exitX=0;exitY=0.5;exitDx=0;exitDy=0;entryX=0.5;entryY=0;entryDx=0;entryDy=0;" parent="1" source="-0o3Ldo7zShTiaAPJY4r-11" target="-0o3Ldo7zShTiaAPJY4r-15" edge="1">
          <mxGeometry relative="1" as="geometry">
            <mxPoint x="230" y="-599.5" as="targetPoint" />
          </mxGeometry>
        </mxCell>
        <mxCell id="-0o3Ldo7zShTiaAPJY4r-40" style="edgeStyle=orthogonalEdgeStyle;rounded=0;orthogonalLoop=1;jettySize=auto;html=1;exitX=1;exitY=0.5;exitDx=0;exitDy=0;entryX=0.75;entryY=0;entryDx=0;entryDy=0;" parent="1" source="-0o3Ldo7zShTiaAPJY4r-11" target="-0o3Ldo7zShTiaAPJY4r-17" edge="1">
          <mxGeometry relative="1" as="geometry">
            <mxPoint x="380" y="-590" as="targetPoint" />
          </mxGeometry>
        </mxCell>
        <mxCell id="-0o3Ldo7zShTiaAPJY4r-11" value="computer==2" style="rhombus;whiteSpace=wrap;html=1;" parent="1" vertex="1">
          <mxGeometry x="260" y="-640" width="80" height="80" as="geometry" />
        </mxCell>
        <mxCell id="-0o3Ldo7zShTiaAPJY4r-41" style="edgeStyle=orthogonalEdgeStyle;rounded=0;orthogonalLoop=1;jettySize=auto;html=1;exitX=0;exitY=0.5;exitDx=0;exitDy=0;entryX=0.5;entryY=0;entryDx=0;entryDy=0;" parent="1" source="-0o3Ldo7zShTiaAPJY4r-12" target="-0o3Ldo7zShTiaAPJY4r-18" edge="1">
          <mxGeometry relative="1" as="geometry">
            <mxPoint x="470" y="-599.5" as="targetPoint" />
          </mxGeometry>
        </mxCell>
        <mxCell id="-0o3Ldo7zShTiaAPJY4r-42" style="edgeStyle=orthogonalEdgeStyle;rounded=0;orthogonalLoop=1;jettySize=auto;html=1;exitX=1;exitY=0.5;exitDx=0;exitDy=0;entryX=0.75;entryY=0;entryDx=0;entryDy=0;" parent="1" source="-0o3Ldo7zShTiaAPJY4r-12" target="-0o3Ldo7zShTiaAPJY4r-19" edge="1">
          <mxGeometry relative="1" as="geometry">
            <mxPoint x="610" y="-590" as="targetPoint" />
          </mxGeometry>
        </mxCell>
        <mxCell id="-0o3Ldo7zShTiaAPJY4r-12" value="computer ==3" style="rhombus;whiteSpace=wrap;html=1;" parent="1" vertex="1">
          <mxGeometry x="510" y="-640" width="80" height="80" as="geometry" />
        </mxCell>
        <mxCell id="-0o3Ldo7zShTiaAPJY4r-43" style="edgeStyle=orthogonalEdgeStyle;rounded=0;orthogonalLoop=1;jettySize=auto;html=1;exitX=0;exitY=0.5;exitDx=0;exitDy=0;entryX=0.25;entryY=0;entryDx=0;entryDy=0;" parent="1" source="-0o3Ldo7zShTiaAPJY4r-13" target="-0o3Ldo7zShTiaAPJY4r-20" edge="1">
          <mxGeometry relative="1" as="geometry">
            <mxPoint x="680" y="-599.5" as="targetPoint" />
            <Array as="points">
              <mxPoint x="700" y="-600" />
              <mxPoint x="700" y="-500" />
            </Array>
          </mxGeometry>
        </mxCell>
        <mxCell id="-0o3Ldo7zShTiaAPJY4r-44" style="edgeStyle=orthogonalEdgeStyle;rounded=0;orthogonalLoop=1;jettySize=auto;html=1;exitX=1;exitY=0.5;exitDx=0;exitDy=0;entryX=0.5;entryY=0;entryDx=0;entryDy=0;" parent="1" source="-0o3Ldo7zShTiaAPJY4r-13" target="-0o3Ldo7zShTiaAPJY4r-21" edge="1">
          <mxGeometry relative="1" as="geometry">
            <mxPoint x="850" y="-599.5" as="targetPoint" />
          </mxGeometry>
        </mxCell>
        <mxCell id="-0o3Ldo7zShTiaAPJY4r-13" value="computer==1" style="rhombus;whiteSpace=wrap;html=1;" parent="1" vertex="1">
          <mxGeometry x="730" y="-640" width="80" height="80" as="geometry" />
        </mxCell>
        <mxCell id="-0o3Ldo7zShTiaAPJY4r-14" value="invalid input" style="shape=parallelogram;perimeter=parallelogramPerimeter;whiteSpace=wrap;html=1;fixedSize=1;" parent="1" vertex="1">
          <mxGeometry x="950" y="-630" width="120" height="60" as="geometry" />
        </mxCell>
        <mxCell id="-0o3Ldo7zShTiaAPJY4r-15" value="win" style="shape=parallelogram;perimeter=parallelogramPerimeter;whiteSpace=wrap;html=1;fixedSize=1;" parent="1" vertex="1">
          <mxGeometry x="180" y="-500" width="90" height="60" as="geometry" />
        </mxCell>
        <mxCell id="-0o3Ldo7zShTiaAPJY4r-17" value="lose" style="shape=parallelogram;perimeter=parallelogramPerimeter;whiteSpace=wrap;html=1;fixedSize=1;" parent="1" vertex="1">
          <mxGeometry x="324" y="-500" width="90" height="60" as="geometry" />
        </mxCell>
        <mxCell id="-0o3Ldo7zShTiaAPJY4r-18" value="win" style="shape=parallelogram;perimeter=parallelogramPerimeter;whiteSpace=wrap;html=1;fixedSize=1;" parent="1" vertex="1">
          <mxGeometry x="420" y="-500" width="90" height="60" as="geometry" />
        </mxCell>
        <mxCell id="-0o3Ldo7zShTiaAPJY4r-19" value="lose" style="shape=parallelogram;perimeter=parallelogramPerimeter;whiteSpace=wrap;html=1;fixedSize=1;" parent="1" vertex="1">
          <mxGeometry x="560" y="-500" width="90" height="60" as="geometry" />
        </mxCell>
        <mxCell id="-0o3Ldo7zShTiaAPJY4r-20" value="win" style="shape=parallelogram;perimeter=parallelogramPerimeter;whiteSpace=wrap;html=1;fixedSize=1;" parent="1" vertex="1">
          <mxGeometry x="660" y="-500" width="90" height="60" as="geometry" />
        </mxCell>
        <mxCell id="-0o3Ldo7zShTiaAPJY4r-21" value="lose" style="shape=parallelogram;perimeter=parallelogramPerimeter;whiteSpace=wrap;html=1;fixedSize=1;" parent="1" vertex="1">
          <mxGeometry x="800" y="-500" width="90" height="60" as="geometry" />
        </mxCell>
        <mxCell id="-0o3Ldo7zShTiaAPJY4r-22" value="END" style="ellipse;whiteSpace=wrap;html=1;" parent="1" vertex="1">
          <mxGeometry x="324" y="-360" width="120" height="80" as="geometry" />
        </mxCell>
        <mxCell id="-0o3Ldo7zShTiaAPJY4r-28" value="" style="endArrow=none;html=1;rounded=0;exitX=0.5;exitY=1;exitDx=0;exitDy=0;" parent="1" source="-0o3Ldo7zShTiaAPJY4r-14" edge="1">
          <mxGeometry width="50" height="50" relative="1" as="geometry">
            <mxPoint x="1000" y="-400" as="sourcePoint" />
            <mxPoint y="-690" as="targetPoint" />
            <Array as="points">
              <mxPoint x="1010" y="-400" />
              <mxPoint y="-400" />
            </Array>
          </mxGeometry>
        </mxCell>
        <mxCell id="-0o3Ldo7zShTiaAPJY4r-31" value="" style="endArrow=classic;html=1;rounded=0;entryX=0.5;entryY=0;entryDx=0;entryDy=0;" parent="1" target="-0o3Ldo7zShTiaAPJY4r-22" edge="1">
          <mxGeometry width="50" height="50" relative="1" as="geometry">
            <mxPoint x="384" y="-400" as="sourcePoint" />
            <mxPoint x="330" y="-400" as="targetPoint" />
          </mxGeometry>
        </mxCell>
        <mxCell id="-0o3Ldo7zShTiaAPJY4r-46" value="" style="endArrow=none;html=1;rounded=0;" parent="1" edge="1">
          <mxGeometry width="50" height="50" relative="1" as="geometry">
            <mxPoint x="360" y="-400" as="sourcePoint" />
            <mxPoint x="360" y="-440" as="targetPoint" />
          </mxGeometry>
        </mxCell>
        <mxCell id="-0o3Ldo7zShTiaAPJY4r-47" value="" style="endArrow=none;html=1;rounded=0;" parent="1" edge="1">
          <mxGeometry width="50" height="50" relative="1" as="geometry">
            <mxPoint x="220" y="-400" as="sourcePoint" />
            <mxPoint x="220" y="-440" as="targetPoint" />
          </mxGeometry>
        </mxCell>
        <mxCell id="-0o3Ldo7zShTiaAPJY4r-48" value="" style="endArrow=none;html=1;rounded=0;" parent="1" edge="1">
          <mxGeometry width="50" height="50" relative="1" as="geometry">
            <mxPoint x="460" y="-400" as="sourcePoint" />
            <mxPoint x="460" y="-440" as="targetPoint" />
          </mxGeometry>
        </mxCell>
        <mxCell id="-0o3Ldo7zShTiaAPJY4r-49" value="" style="endArrow=none;html=1;rounded=0;" parent="1" edge="1">
          <mxGeometry width="50" height="50" relative="1" as="geometry">
            <mxPoint x="600" y="-400" as="sourcePoint" />
            <mxPoint x="600" y="-440" as="targetPoint" />
          </mxGeometry>
        </mxCell>
        <mxCell id="-0o3Ldo7zShTiaAPJY4r-50" value="" style="endArrow=none;html=1;rounded=0;" parent="1" edge="1">
          <mxGeometry width="50" height="50" relative="1" as="geometry">
            <mxPoint x="700" y="-400" as="sourcePoint" />
            <mxPoint x="700" y="-440" as="targetPoint" />
          </mxGeometry>
        </mxCell>
        <mxCell id="-0o3Ldo7zShTiaAPJY4r-51" value="" style="endArrow=none;html=1;rounded=0;" parent="1" edge="1">
          <mxGeometry width="50" height="50" relative="1" as="geometry">
            <mxPoint x="840" y="-400" as="sourcePoint" />
            <mxPoint x="840" y="-440" as="targetPoint" />
          </mxGeometry>
        </mxCell>
      </root>
    </mxGraphModel>
  </diagram>
  <diagram id="_XiQ8yg55q_rjVd_TdT4" name="bài 3:vòng for">
    <mxGraphModel dx="1518" dy="636" grid="1" gridSize="10" guides="1" tooltips="1" connect="1" arrows="1" fold="1" page="1" pageScale="1" pageWidth="827" pageHeight="1169" math="0" shadow="0">
      <root>
        <mxCell id="0" />
        <mxCell id="1" parent="0" />
        <mxCell id="LlkvX-pfvGaAJAl6qU-U-7" style="edgeStyle=orthogonalEdgeStyle;rounded=0;orthogonalLoop=1;jettySize=auto;html=1;exitX=0.5;exitY=1;exitDx=0;exitDy=0;entryX=0.5;entryY=0;entryDx=0;entryDy=0;" parent="1" source="LlkvX-pfvGaAJAl6qU-U-1" target="LlkvX-pfvGaAJAl6qU-U-2" edge="1">
          <mxGeometry relative="1" as="geometry" />
        </mxCell>
        <mxCell id="LlkvX-pfvGaAJAl6qU-U-1" value="START" style="ellipse;whiteSpace=wrap;html=1;" parent="1" vertex="1">
          <mxGeometry x="354" y="10" width="120" height="80" as="geometry" />
        </mxCell>
        <mxCell id="LlkvX-pfvGaAJAl6qU-U-8" style="edgeStyle=orthogonalEdgeStyle;rounded=0;orthogonalLoop=1;jettySize=auto;html=1;exitX=0.5;exitY=1;exitDx=0;exitDy=0;" parent="1" source="LlkvX-pfvGaAJAl6qU-U-2" target="LlkvX-pfvGaAJAl6qU-U-4" edge="1">
          <mxGeometry relative="1" as="geometry" />
        </mxCell>
        <mxCell id="LlkvX-pfvGaAJAl6qU-U-12" style="edgeStyle=orthogonalEdgeStyle;rounded=0;orthogonalLoop=1;jettySize=auto;html=1;entryX=0;entryY=0.5;entryDx=0;entryDy=0;" parent="1" target="LlkvX-pfvGaAJAl6qU-U-5" edge="1">
          <mxGeometry relative="1" as="geometry">
            <mxPoint x="210" y="440" as="targetPoint" />
            <mxPoint x="414" y="190" as="sourcePoint" />
            <Array as="points">
              <mxPoint x="300" y="190" />
              <mxPoint x="300" y="440" />
            </Array>
          </mxGeometry>
        </mxCell>
        <mxCell id="LlkvX-pfvGaAJAl6qU-U-2" value="input n&amp;nbsp;&lt;br&gt;count = 0" style="shape=parallelogram;perimeter=parallelogramPerimeter;whiteSpace=wrap;html=1;fixedSize=1;" parent="1" vertex="1">
          <mxGeometry x="354" y="120" width="120" height="60" as="geometry" />
        </mxCell>
        <mxCell id="LlkvX-pfvGaAJAl6qU-U-10" style="edgeStyle=orthogonalEdgeStyle;rounded=0;orthogonalLoop=1;jettySize=auto;html=1;exitX=0.5;exitY=1;exitDx=0;exitDy=0;" parent="1" source="LlkvX-pfvGaAJAl6qU-U-3" target="LlkvX-pfvGaAJAl6qU-U-5" edge="1">
          <mxGeometry relative="1" as="geometry" />
        </mxCell>
        <mxCell id="LlkvX-pfvGaAJAl6qU-U-3" value="count += 1" style="rounded=0;whiteSpace=wrap;html=1;" parent="1" vertex="1">
          <mxGeometry x="354" y="310" width="120" height="60" as="geometry" />
        </mxCell>
        <mxCell id="LlkvX-pfvGaAJAl6qU-U-9" style="edgeStyle=orthogonalEdgeStyle;rounded=0;orthogonalLoop=1;jettySize=auto;html=1;exitX=0.5;exitY=1;exitDx=0;exitDy=0;entryX=0.5;entryY=0;entryDx=0;entryDy=0;" parent="1" source="LlkvX-pfvGaAJAl6qU-U-4" target="LlkvX-pfvGaAJAl6qU-U-3" edge="1">
          <mxGeometry relative="1" as="geometry" />
        </mxCell>
        <mxCell id="LlkvX-pfvGaAJAl6qU-U-4" value="i in str(n)" style="rhombus;whiteSpace=wrap;html=1;" parent="1" vertex="1">
          <mxGeometry x="374" y="210" width="80" height="80" as="geometry" />
        </mxCell>
        <mxCell id="LlkvX-pfvGaAJAl6qU-U-11" style="edgeStyle=orthogonalEdgeStyle;rounded=0;orthogonalLoop=1;jettySize=auto;html=1;exitX=0.5;exitY=1;exitDx=0;exitDy=0;entryX=0.5;entryY=0;entryDx=0;entryDy=0;" parent="1" source="LlkvX-pfvGaAJAl6qU-U-5" target="LlkvX-pfvGaAJAl6qU-U-6" edge="1">
          <mxGeometry relative="1" as="geometry" />
        </mxCell>
        <mxCell id="LlkvX-pfvGaAJAl6qU-U-5" value="output count" style="shape=parallelogram;perimeter=parallelogramPerimeter;whiteSpace=wrap;html=1;fixedSize=1;" parent="1" vertex="1">
          <mxGeometry x="354" y="410" width="120" height="60" as="geometry" />
        </mxCell>
        <mxCell id="LlkvX-pfvGaAJAl6qU-U-6" value="END" style="ellipse;whiteSpace=wrap;html=1;" parent="1" vertex="1">
          <mxGeometry x="354" y="505" width="120" height="80" as="geometry" />
        </mxCell>
      </root>
    </mxGraphModel>
  </diagram>
  <diagram id="Hmy7XlbEoJ7FMWxCQlu5" name="bài 6:vòng for">
    <mxGraphModel dx="1518" dy="636" grid="1" gridSize="10" guides="1" tooltips="1" connect="1" arrows="1" fold="1" page="1" pageScale="1" pageWidth="827" pageHeight="1169" math="0" shadow="0">
      <root>
        <mxCell id="0" />
        <mxCell id="1" parent="0" />
        <mxCell id="0v3Fvigcrosr495dHYEE-8" style="edgeStyle=orthogonalEdgeStyle;rounded=0;orthogonalLoop=1;jettySize=auto;html=1;exitX=0.5;exitY=1;exitDx=0;exitDy=0;entryX=0.5;entryY=0;entryDx=0;entryDy=0;" parent="1" source="0v3Fvigcrosr495dHYEE-1" target="0v3Fvigcrosr495dHYEE-2" edge="1">
          <mxGeometry relative="1" as="geometry" />
        </mxCell>
        <mxCell id="0v3Fvigcrosr495dHYEE-1" value="START" style="ellipse;whiteSpace=wrap;html=1;" parent="1" vertex="1">
          <mxGeometry x="354" y="20" width="120" height="80" as="geometry" />
        </mxCell>
        <mxCell id="0v3Fvigcrosr495dHYEE-9" style="edgeStyle=orthogonalEdgeStyle;rounded=0;orthogonalLoop=1;jettySize=auto;html=1;exitX=0.5;exitY=1;exitDx=0;exitDy=0;" parent="1" source="0v3Fvigcrosr495dHYEE-2" target="0v3Fvigcrosr495dHYEE-3" edge="1">
          <mxGeometry relative="1" as="geometry" />
        </mxCell>
        <mxCell id="0v3Fvigcrosr495dHYEE-2" value="input n" style="shape=parallelogram;perimeter=parallelogramPerimeter;whiteSpace=wrap;html=1;fixedSize=1;" parent="1" vertex="1">
          <mxGeometry x="354" y="130" width="120" height="60" as="geometry" />
        </mxCell>
        <mxCell id="0v3Fvigcrosr495dHYEE-10" style="edgeStyle=orthogonalEdgeStyle;rounded=0;orthogonalLoop=1;jettySize=auto;html=1;exitX=1;exitY=0.5;exitDx=0;exitDy=0;" parent="1" source="0v3Fvigcrosr495dHYEE-3" target="0v3Fvigcrosr495dHYEE-4" edge="1">
          <mxGeometry relative="1" as="geometry" />
        </mxCell>
        <mxCell id="0v3Fvigcrosr495dHYEE-11" style="edgeStyle=orthogonalEdgeStyle;rounded=0;orthogonalLoop=1;jettySize=auto;html=1;exitX=0.5;exitY=1;exitDx=0;exitDy=0;entryX=0.5;entryY=0;entryDx=0;entryDy=0;" parent="1" source="0v3Fvigcrosr495dHYEE-3" target="0v3Fvigcrosr495dHYEE-7" edge="1">
          <mxGeometry relative="1" as="geometry" />
        </mxCell>
        <mxCell id="0v3Fvigcrosr495dHYEE-3" value="i in range(n,0,-1)" style="rhombus;whiteSpace=wrap;html=1;" parent="1" vertex="1">
          <mxGeometry x="355" y="240" width="118" height="80" as="geometry" />
        </mxCell>
        <mxCell id="0v3Fvigcrosr495dHYEE-12" style="edgeStyle=orthogonalEdgeStyle;rounded=0;orthogonalLoop=1;jettySize=auto;html=1;exitX=0.5;exitY=1;exitDx=0;exitDy=0;entryX=0.5;entryY=0;entryDx=0;entryDy=0;" parent="1" source="0v3Fvigcrosr495dHYEE-4" target="0v3Fvigcrosr495dHYEE-5" edge="1">
          <mxGeometry relative="1" as="geometry" />
        </mxCell>
        <mxCell id="0v3Fvigcrosr495dHYEE-4" value="j in range(i,0,-1)" style="rhombus;whiteSpace=wrap;html=1;" parent="1" vertex="1">
          <mxGeometry x="570" y="240" width="120" height="80" as="geometry" />
        </mxCell>
        <mxCell id="0v3Fvigcrosr495dHYEE-13" style="edgeStyle=orthogonalEdgeStyle;rounded=0;orthogonalLoop=1;jettySize=auto;html=1;exitX=0;exitY=0.5;exitDx=0;exitDy=0;" parent="1" source="0v3Fvigcrosr495dHYEE-5" target="0v3Fvigcrosr495dHYEE-7" edge="1">
          <mxGeometry relative="1" as="geometry" />
        </mxCell>
        <mxCell id="0v3Fvigcrosr495dHYEE-5" value="print(j)" style="shape=parallelogram;perimeter=parallelogramPerimeter;whiteSpace=wrap;html=1;fixedSize=1;" parent="1" vertex="1">
          <mxGeometry x="570" y="400" width="120" height="60" as="geometry" />
        </mxCell>
        <mxCell id="0v3Fvigcrosr495dHYEE-6" value="END" style="ellipse;whiteSpace=wrap;html=1;" parent="1" vertex="1">
          <mxGeometry x="355" y="505" width="120" height="80" as="geometry" />
        </mxCell>
        <mxCell id="0v3Fvigcrosr495dHYEE-14" style="edgeStyle=orthogonalEdgeStyle;rounded=0;orthogonalLoop=1;jettySize=auto;html=1;exitX=0.5;exitY=1;exitDx=0;exitDy=0;" parent="1" source="0v3Fvigcrosr495dHYEE-7" target="0v3Fvigcrosr495dHYEE-6" edge="1">
          <mxGeometry relative="1" as="geometry" />
        </mxCell>
        <mxCell id="0v3Fvigcrosr495dHYEE-7" value="print()" style="shape=parallelogram;perimeter=parallelogramPerimeter;whiteSpace=wrap;html=1;fixedSize=1;" parent="1" vertex="1">
          <mxGeometry x="355" y="400" width="120" height="60" as="geometry" />
        </mxCell>
      </root>
    </mxGraphModel>
  </diagram>
  <diagram id="azSNk3muYEI2yx_HHDm3" name="bài 9: vòng for">
    <mxGraphModel dx="1290" dy="541" grid="1" gridSize="10" guides="1" tooltips="1" connect="1" arrows="1" fold="1" page="1" pageScale="1" pageWidth="827" pageHeight="1169" math="0" shadow="0">
      <root>
        <mxCell id="0" />
        <mxCell id="1" parent="0" />
        <mxCell id="DxY_B6VfWEGnnTO2mYzM-8" style="edgeStyle=orthogonalEdgeStyle;rounded=0;orthogonalLoop=1;jettySize=auto;html=1;exitX=0.5;exitY=1;exitDx=0;exitDy=0;" parent="1" source="DxY_B6VfWEGnnTO2mYzM-1" target="DxY_B6VfWEGnnTO2mYzM-2" edge="1">
          <mxGeometry relative="1" as="geometry" />
        </mxCell>
        <mxCell id="DxY_B6VfWEGnnTO2mYzM-1" value="START" style="ellipse;whiteSpace=wrap;html=1;" parent="1" vertex="1">
          <mxGeometry x="320" y="20" width="120" height="80" as="geometry" />
        </mxCell>
        <mxCell id="DxY_B6VfWEGnnTO2mYzM-9" style="edgeStyle=orthogonalEdgeStyle;rounded=0;orthogonalLoop=1;jettySize=auto;html=1;exitX=0.5;exitY=1;exitDx=0;exitDy=0;" parent="1" source="DxY_B6VfWEGnnTO2mYzM-2" target="DxY_B6VfWEGnnTO2mYzM-3" edge="1">
          <mxGeometry relative="1" as="geometry" />
        </mxCell>
        <mxCell id="DxY_B6VfWEGnnTO2mYzM-2" value="input n" style="shape=parallelogram;perimeter=parallelogramPerimeter;whiteSpace=wrap;html=1;fixedSize=1;" parent="1" vertex="1">
          <mxGeometry x="320" y="140" width="120" height="60" as="geometry" />
        </mxCell>
        <mxCell id="DxY_B6VfWEGnnTO2mYzM-10" style="edgeStyle=orthogonalEdgeStyle;rounded=0;orthogonalLoop=1;jettySize=auto;html=1;exitX=1;exitY=0.5;exitDx=0;exitDy=0;entryX=0;entryY=0.5;entryDx=0;entryDy=0;" parent="1" source="DxY_B6VfWEGnnTO2mYzM-3" target="DxY_B6VfWEGnnTO2mYzM-4" edge="1">
          <mxGeometry relative="1" as="geometry" />
        </mxCell>
        <mxCell id="DxY_B6VfWEGnnTO2mYzM-12" style="edgeStyle=orthogonalEdgeStyle;rounded=0;orthogonalLoop=1;jettySize=auto;html=1;exitX=0.5;exitY=1;exitDx=0;exitDy=0;entryX=0.5;entryY=0;entryDx=0;entryDy=0;" parent="1" source="DxY_B6VfWEGnnTO2mYzM-3" target="DxY_B6VfWEGnnTO2mYzM-5" edge="1">
          <mxGeometry relative="1" as="geometry" />
        </mxCell>
        <mxCell id="DxY_B6VfWEGnnTO2mYzM-3" value="i in range (1,n+1)" style="rhombus;whiteSpace=wrap;html=1;" parent="1" vertex="1">
          <mxGeometry x="315" y="230" width="130" height="80" as="geometry" />
        </mxCell>
        <mxCell id="DxY_B6VfWEGnnTO2mYzM-11" style="edgeStyle=orthogonalEdgeStyle;rounded=0;orthogonalLoop=1;jettySize=auto;html=1;exitX=0.5;exitY=1;exitDx=0;exitDy=0;" parent="1" source="DxY_B6VfWEGnnTO2mYzM-4" target="DxY_B6VfWEGnnTO2mYzM-6" edge="1">
          <mxGeometry relative="1" as="geometry" />
        </mxCell>
        <mxCell id="DxY_B6VfWEGnnTO2mYzM-4" value="j in range(i)" style="rhombus;whiteSpace=wrap;html=1;" parent="1" vertex="1">
          <mxGeometry x="540" y="230" width="110" height="80" as="geometry" />
        </mxCell>
        <mxCell id="DxY_B6VfWEGnnTO2mYzM-14" style="edgeStyle=orthogonalEdgeStyle;rounded=0;orthogonalLoop=1;jettySize=auto;html=1;exitX=0.5;exitY=1;exitDx=0;exitDy=0;entryX=0.5;entryY=0;entryDx=0;entryDy=0;" parent="1" source="DxY_B6VfWEGnnTO2mYzM-5" target="DxY_B6VfWEGnnTO2mYzM-7" edge="1">
          <mxGeometry relative="1" as="geometry" />
        </mxCell>
        <mxCell id="DxY_B6VfWEGnnTO2mYzM-5" value="print()" style="shape=parallelogram;perimeter=parallelogramPerimeter;whiteSpace=wrap;html=1;fixedSize=1;" parent="1" vertex="1">
          <mxGeometry x="320" y="360" width="120" height="60" as="geometry" />
        </mxCell>
        <mxCell id="DxY_B6VfWEGnnTO2mYzM-13" style="edgeStyle=orthogonalEdgeStyle;rounded=0;orthogonalLoop=1;jettySize=auto;html=1;exitX=0;exitY=0.5;exitDx=0;exitDy=0;entryX=1;entryY=0.5;entryDx=0;entryDy=0;" parent="1" source="DxY_B6VfWEGnnTO2mYzM-6" target="DxY_B6VfWEGnnTO2mYzM-5" edge="1">
          <mxGeometry relative="1" as="geometry" />
        </mxCell>
        <mxCell id="DxY_B6VfWEGnnTO2mYzM-6" value="print(i,end=&quot;&quot;)" style="shape=parallelogram;perimeter=parallelogramPerimeter;whiteSpace=wrap;html=1;fixedSize=1;" parent="1" vertex="1">
          <mxGeometry x="535" y="360" width="120" height="60" as="geometry" />
        </mxCell>
        <mxCell id="DxY_B6VfWEGnnTO2mYzM-7" value="END" style="ellipse;whiteSpace=wrap;html=1;" parent="1" vertex="1">
          <mxGeometry x="320" y="460" width="120" height="80" as="geometry" />
        </mxCell>
      </root>
    </mxGraphModel>
  </diagram>
  <diagram id="iTbjHkukk6DLsh_RX-dg" name="bài 12: vòng for">
    <mxGraphModel dx="2117" dy="541" grid="1" gridSize="10" guides="1" tooltips="1" connect="1" arrows="1" fold="1" page="1" pageScale="1" pageWidth="827" pageHeight="1169" math="0" shadow="0">
      <root>
        <mxCell id="0" />
        <mxCell id="1" parent="0" />
        <mxCell id="u4SqzDgT3brE_wd6AAbY-13" style="edgeStyle=orthogonalEdgeStyle;rounded=0;orthogonalLoop=1;jettySize=auto;html=1;exitX=1;exitY=0.5;exitDx=0;exitDy=0;entryX=0;entryY=0.5;entryDx=0;entryDy=0;" parent="1" source="u4SqzDgT3brE_wd6AAbY-1" target="u4SqzDgT3brE_wd6AAbY-2" edge="1">
          <mxGeometry relative="1" as="geometry" />
        </mxCell>
        <mxCell id="u4SqzDgT3brE_wd6AAbY-1" value="START" style="ellipse;whiteSpace=wrap;html=1;" parent="1" vertex="1">
          <mxGeometry x="-20" y="220" width="120" height="80" as="geometry" />
        </mxCell>
        <mxCell id="u4SqzDgT3brE_wd6AAbY-14" style="edgeStyle=orthogonalEdgeStyle;rounded=0;orthogonalLoop=1;jettySize=auto;html=1;exitX=1;exitY=0.5;exitDx=0;exitDy=0;entryX=0;entryY=0.5;entryDx=0;entryDy=0;" parent="1" source="u4SqzDgT3brE_wd6AAbY-2" target="u4SqzDgT3brE_wd6AAbY-3" edge="1">
          <mxGeometry relative="1" as="geometry" />
        </mxCell>
        <mxCell id="u4SqzDgT3brE_wd6AAbY-2" value="input chuoi&lt;br&gt;count = 0" style="shape=parallelogram;perimeter=parallelogramPerimeter;whiteSpace=wrap;html=1;fixedSize=1;" parent="1" vertex="1">
          <mxGeometry x="160" y="230" width="120" height="60" as="geometry" />
        </mxCell>
        <mxCell id="u4SqzDgT3brE_wd6AAbY-15" style="edgeStyle=orthogonalEdgeStyle;rounded=0;orthogonalLoop=1;jettySize=auto;html=1;exitX=1;exitY=0.5;exitDx=0;exitDy=0;" parent="1" source="u4SqzDgT3brE_wd6AAbY-3" target="u4SqzDgT3brE_wd6AAbY-5" edge="1">
          <mxGeometry relative="1" as="geometry" />
        </mxCell>
        <mxCell id="u4SqzDgT3brE_wd6AAbY-3" value="i in chuoi" style="rhombus;whiteSpace=wrap;html=1;" parent="1" vertex="1">
          <mxGeometry x="334" y="220" width="80" height="80" as="geometry" />
        </mxCell>
        <mxCell id="u4SqzDgT3brE_wd6AAbY-16" style="edgeStyle=orthogonalEdgeStyle;rounded=0;orthogonalLoop=1;jettySize=auto;html=1;exitX=0.5;exitY=1;exitDx=0;exitDy=0;entryX=0.5;entryY=0;entryDx=0;entryDy=0;" parent="1" source="u4SqzDgT3brE_wd6AAbY-5" target="u4SqzDgT3brE_wd6AAbY-7" edge="1">
          <mxGeometry relative="1" as="geometry" />
        </mxCell>
        <mxCell id="u4SqzDgT3brE_wd6AAbY-23" style="edgeStyle=orthogonalEdgeStyle;rounded=0;orthogonalLoop=1;jettySize=auto;html=1;exitX=1;exitY=0.5;exitDx=0;exitDy=0;" parent="1" source="u4SqzDgT3brE_wd6AAbY-5" target="u4SqzDgT3brE_wd6AAbY-12" edge="1">
          <mxGeometry relative="1" as="geometry" />
        </mxCell>
        <mxCell id="u4SqzDgT3brE_wd6AAbY-5" value="i&amp;gt;=&#39;0&#39; and i &amp;lt;=&#39;9&#39;" style="rhombus;whiteSpace=wrap;html=1;" parent="1" vertex="1">
          <mxGeometry x="480" y="220" width="120" height="80" as="geometry" />
        </mxCell>
        <mxCell id="u4SqzDgT3brE_wd6AAbY-17" style="edgeStyle=orthogonalEdgeStyle;rounded=0;orthogonalLoop=1;jettySize=auto;html=1;exitX=0.5;exitY=1;exitDx=0;exitDy=0;entryX=0.5;entryY=0;entryDx=0;entryDy=0;" parent="1" source="u4SqzDgT3brE_wd6AAbY-7" target="u4SqzDgT3brE_wd6AAbY-8" edge="1">
          <mxGeometry relative="1" as="geometry" />
        </mxCell>
        <mxCell id="u4SqzDgT3brE_wd6AAbY-7" value="j = int(i)" style="rounded=0;whiteSpace=wrap;html=1;" parent="1" vertex="1">
          <mxGeometry x="480" y="340" width="120" height="60" as="geometry" />
        </mxCell>
        <mxCell id="u4SqzDgT3brE_wd6AAbY-18" style="edgeStyle=orthogonalEdgeStyle;rounded=0;orthogonalLoop=1;jettySize=auto;html=1;exitX=0.5;exitY=1;exitDx=0;exitDy=0;entryX=0.5;entryY=0;entryDx=0;entryDy=0;" parent="1" source="u4SqzDgT3brE_wd6AAbY-8" target="u4SqzDgT3brE_wd6AAbY-10" edge="1">
          <mxGeometry relative="1" as="geometry" />
        </mxCell>
        <mxCell id="u4SqzDgT3brE_wd6AAbY-8" value="j %2 == 0?" style="rhombus;whiteSpace=wrap;html=1;" parent="1" vertex="1">
          <mxGeometry x="500" y="450" width="80" height="80" as="geometry" />
        </mxCell>
        <mxCell id="u4SqzDgT3brE_wd6AAbY-19" style="edgeStyle=orthogonalEdgeStyle;rounded=0;orthogonalLoop=1;jettySize=auto;html=1;exitX=1;exitY=0.5;exitDx=0;exitDy=0;" parent="1" source="u4SqzDgT3brE_wd6AAbY-10" target="u4SqzDgT3brE_wd6AAbY-11" edge="1">
          <mxGeometry relative="1" as="geometry" />
        </mxCell>
        <mxCell id="u4SqzDgT3brE_wd6AAbY-10" value="count +=1" style="rounded=0;whiteSpace=wrap;html=1;" parent="1" vertex="1">
          <mxGeometry x="480" y="570" width="120" height="60" as="geometry" />
        </mxCell>
        <mxCell id="u4SqzDgT3brE_wd6AAbY-20" style="edgeStyle=orthogonalEdgeStyle;rounded=0;orthogonalLoop=1;jettySize=auto;html=1;exitX=0.5;exitY=0;exitDx=0;exitDy=0;entryX=0.5;entryY=1;entryDx=0;entryDy=0;" parent="1" source="u4SqzDgT3brE_wd6AAbY-11" target="u4SqzDgT3brE_wd6AAbY-12" edge="1">
          <mxGeometry relative="1" as="geometry" />
        </mxCell>
        <mxCell id="u4SqzDgT3brE_wd6AAbY-11" value="print count" style="shape=parallelogram;perimeter=parallelogramPerimeter;whiteSpace=wrap;html=1;fixedSize=1;" parent="1" vertex="1">
          <mxGeometry x="700" y="570" width="120" height="60" as="geometry" />
        </mxCell>
        <mxCell id="u4SqzDgT3brE_wd6AAbY-12" value="END" style="ellipse;whiteSpace=wrap;html=1;" parent="1" vertex="1">
          <mxGeometry x="700" y="220" width="120" height="80" as="geometry" />
        </mxCell>
        <mxCell id="u4SqzDgT3brE_wd6AAbY-22" value="" style="endArrow=none;html=1;rounded=0;exitX=1;exitY=0.5;exitDx=0;exitDy=0;" parent="1" source="u4SqzDgT3brE_wd6AAbY-8" edge="1">
          <mxGeometry width="50" height="50" relative="1" as="geometry">
            <mxPoint x="590" y="500" as="sourcePoint" />
            <mxPoint x="760" y="490" as="targetPoint" />
          </mxGeometry>
        </mxCell>
      </root>
    </mxGraphModel>
  </diagram>
  <diagram id="9TyVOkIGBBNTezyNozbJ" name="Trang-10">
    <mxGraphModel dx="1290" dy="541" grid="1" gridSize="10" guides="1" tooltips="1" connect="1" arrows="1" fold="1" page="1" pageScale="1" pageWidth="827" pageHeight="1169" math="0" shadow="0">
      <root>
        <mxCell id="0" />
        <mxCell id="1" parent="0" />
        <mxCell id="PVz_C-a2VUBV-agPjPhs-6" style="edgeStyle=orthogonalEdgeStyle;rounded=0;orthogonalLoop=1;jettySize=auto;html=1;exitX=0.5;exitY=1;exitDx=0;exitDy=0;entryX=0.5;entryY=0;entryDx=0;entryDy=0;" edge="1" parent="1" source="PVz_C-a2VUBV-agPjPhs-1" target="PVz_C-a2VUBV-agPjPhs-2">
          <mxGeometry relative="1" as="geometry" />
        </mxCell>
        <mxCell id="PVz_C-a2VUBV-agPjPhs-1" value="START" style="ellipse;whiteSpace=wrap;html=1;" vertex="1" parent="1">
          <mxGeometry x="354" y="10" width="120" height="80" as="geometry" />
        </mxCell>
        <mxCell id="PVz_C-a2VUBV-agPjPhs-7" style="edgeStyle=orthogonalEdgeStyle;rounded=0;orthogonalLoop=1;jettySize=auto;html=1;exitX=0.5;exitY=1;exitDx=0;exitDy=0;entryX=0.5;entryY=0;entryDx=0;entryDy=0;" edge="1" parent="1" source="PVz_C-a2VUBV-agPjPhs-2" target="PVz_C-a2VUBV-agPjPhs-3">
          <mxGeometry relative="1" as="geometry" />
        </mxCell>
        <mxCell id="PVz_C-a2VUBV-agPjPhs-2" value="n = 10" style="shape=parallelogram;perimeter=parallelogramPerimeter;whiteSpace=wrap;html=1;fixedSize=1;" vertex="1" parent="1">
          <mxGeometry x="354" y="120" width="120" height="60" as="geometry" />
        </mxCell>
        <mxCell id="PVz_C-a2VUBV-agPjPhs-8" style="edgeStyle=orthogonalEdgeStyle;rounded=0;orthogonalLoop=1;jettySize=auto;html=1;exitX=0.5;exitY=1;exitDx=0;exitDy=0;entryX=0.5;entryY=0;entryDx=0;entryDy=0;" edge="1" parent="1" source="PVz_C-a2VUBV-agPjPhs-3" target="PVz_C-a2VUBV-agPjPhs-4">
          <mxGeometry relative="1" as="geometry" />
        </mxCell>
        <mxCell id="PVz_C-a2VUBV-agPjPhs-3" value="i in range(1 , n + 1)" style="rhombus;whiteSpace=wrap;html=1;" vertex="1" parent="1">
          <mxGeometry x="350" y="210" width="124" height="80" as="geometry" />
        </mxCell>
        <mxCell id="PVz_C-a2VUBV-agPjPhs-9" style="edgeStyle=orthogonalEdgeStyle;rounded=0;orthogonalLoop=1;jettySize=auto;html=1;exitX=0.5;exitY=1;exitDx=0;exitDy=0;entryX=0.5;entryY=0;entryDx=0;entryDy=0;" edge="1" parent="1" source="PVz_C-a2VUBV-agPjPhs-4" target="PVz_C-a2VUBV-agPjPhs-5">
          <mxGeometry relative="1" as="geometry" />
        </mxCell>
        <mxCell id="PVz_C-a2VUBV-agPjPhs-4" value="print(i)" style="shape=parallelogram;perimeter=parallelogramPerimeter;whiteSpace=wrap;html=1;fixedSize=1;" vertex="1" parent="1">
          <mxGeometry x="352" y="330" width="120" height="60" as="geometry" />
        </mxCell>
        <mxCell id="PVz_C-a2VUBV-agPjPhs-5" value="END" style="ellipse;whiteSpace=wrap;html=1;" vertex="1" parent="1">
          <mxGeometry x="354" y="430" width="120" height="80" as="geometry" />
        </mxCell>
      </root>
    </mxGraphModel>
  </diagram>
  <diagram id="CdFvlfBJFxTkBXZ9c935" name="Trang-11">
    <mxGraphModel dx="1290" dy="541" grid="1" gridSize="10" guides="1" tooltips="1" connect="1" arrows="1" fold="1" page="1" pageScale="1" pageWidth="827" pageHeight="1169" math="0" shadow="0">
      <root>
        <mxCell id="0" />
        <mxCell id="1" parent="0" />
        <mxCell id="G39hNQz3ooye2xaNkS2a-1" style="edgeStyle=orthogonalEdgeStyle;rounded=0;orthogonalLoop=1;jettySize=auto;html=1;exitX=0.5;exitY=1;exitDx=0;exitDy=0;entryX=0.5;entryY=0;entryDx=0;entryDy=0;" edge="1" parent="1" source="G39hNQz3ooye2xaNkS2a-2" target="G39hNQz3ooye2xaNkS2a-5">
          <mxGeometry relative="1" as="geometry" />
        </mxCell>
        <mxCell id="G39hNQz3ooye2xaNkS2a-2" value="START" style="ellipse;whiteSpace=wrap;html=1;" vertex="1" parent="1">
          <mxGeometry x="354" y="10" width="120" height="80" as="geometry" />
        </mxCell>
        <mxCell id="G39hNQz3ooye2xaNkS2a-3" style="edgeStyle=orthogonalEdgeStyle;rounded=0;orthogonalLoop=1;jettySize=auto;html=1;exitX=0.5;exitY=1;exitDx=0;exitDy=0;" edge="1" parent="1" source="G39hNQz3ooye2xaNkS2a-5" target="G39hNQz3ooye2xaNkS2a-9">
          <mxGeometry relative="1" as="geometry" />
        </mxCell>
        <mxCell id="G39hNQz3ooye2xaNkS2a-4" style="edgeStyle=orthogonalEdgeStyle;rounded=0;orthogonalLoop=1;jettySize=auto;html=1;entryX=0;entryY=0.5;entryDx=0;entryDy=0;" edge="1" parent="1" target="G39hNQz3ooye2xaNkS2a-11">
          <mxGeometry relative="1" as="geometry">
            <mxPoint x="210" y="440" as="targetPoint" />
            <mxPoint x="414" y="190" as="sourcePoint" />
            <Array as="points">
              <mxPoint x="300" y="190" />
              <mxPoint x="300" y="440" />
            </Array>
          </mxGeometry>
        </mxCell>
        <mxCell id="G39hNQz3ooye2xaNkS2a-5" value="input n&amp;nbsp;&lt;br&gt;total = 0" style="shape=parallelogram;perimeter=parallelogramPerimeter;whiteSpace=wrap;html=1;fixedSize=1;" vertex="1" parent="1">
          <mxGeometry x="354" y="120" width="120" height="60" as="geometry" />
        </mxCell>
        <mxCell id="G39hNQz3ooye2xaNkS2a-6" style="edgeStyle=orthogonalEdgeStyle;rounded=0;orthogonalLoop=1;jettySize=auto;html=1;exitX=0.5;exitY=1;exitDx=0;exitDy=0;" edge="1" parent="1" source="G39hNQz3ooye2xaNkS2a-7" target="G39hNQz3ooye2xaNkS2a-11">
          <mxGeometry relative="1" as="geometry" />
        </mxCell>
        <mxCell id="G39hNQz3ooye2xaNkS2a-7" value="total += int(i)" style="rounded=0;whiteSpace=wrap;html=1;" vertex="1" parent="1">
          <mxGeometry x="354" y="310" width="120" height="60" as="geometry" />
        </mxCell>
        <mxCell id="G39hNQz3ooye2xaNkS2a-8" style="edgeStyle=orthogonalEdgeStyle;rounded=0;orthogonalLoop=1;jettySize=auto;html=1;exitX=0.5;exitY=1;exitDx=0;exitDy=0;entryX=0.5;entryY=0;entryDx=0;entryDy=0;" edge="1" parent="1" source="G39hNQz3ooye2xaNkS2a-9" target="G39hNQz3ooye2xaNkS2a-7">
          <mxGeometry relative="1" as="geometry" />
        </mxCell>
        <mxCell id="G39hNQz3ooye2xaNkS2a-9" value="i in str(n)" style="rhombus;whiteSpace=wrap;html=1;" vertex="1" parent="1">
          <mxGeometry x="374" y="210" width="80" height="80" as="geometry" />
        </mxCell>
        <mxCell id="G39hNQz3ooye2xaNkS2a-10" style="edgeStyle=orthogonalEdgeStyle;rounded=0;orthogonalLoop=1;jettySize=auto;html=1;exitX=0.5;exitY=1;exitDx=0;exitDy=0;entryX=0.5;entryY=0;entryDx=0;entryDy=0;" edge="1" parent="1" source="G39hNQz3ooye2xaNkS2a-11" target="G39hNQz3ooye2xaNkS2a-12">
          <mxGeometry relative="1" as="geometry" />
        </mxCell>
        <mxCell id="G39hNQz3ooye2xaNkS2a-11" value="output total" style="shape=parallelogram;perimeter=parallelogramPerimeter;whiteSpace=wrap;html=1;fixedSize=1;" vertex="1" parent="1">
          <mxGeometry x="354" y="410" width="120" height="60" as="geometry" />
        </mxCell>
        <mxCell id="G39hNQz3ooye2xaNkS2a-12" value="END" style="ellipse;whiteSpace=wrap;html=1;" vertex="1" parent="1">
          <mxGeometry x="354" y="505" width="120" height="80" as="geometry" />
        </mxCell>
      </root>
    </mxGraphModel>
  </diagram>
</mxfile>
